<mxfile host="65bd71144e" modified="2020-12-06T03:33:05.711Z" agent="5.0 (Macintosh; Intel Mac OS X 10_16_0) AppleWebKit/537.36 (KHTML, like Gecko) Code/1.51.1 Chrome/83.0.4103.122 Electron/9.3.3 Safari/537.36" etag="F-pUOGKzNZmMUTeXwHit" version="13.10.0" type="embed">
    <diagram id="ad_hiC05-cFuaW0CDkOR" name="住所登録画面">
        <mxGraphModel dx="648" dy="488" grid="1" gridSize="10" guides="1" tooltips="1" connect="1" arrows="1" fold="1" page="1" pageScale="1" pageWidth="1200" pageHeight="1920" math="0" shadow="0">
            <root>
                <mxCell id="0"/>
                <mxCell id="1" parent="0"/>
                <mxCell id="2" value="" style="strokeWidth=1;shadow=0;dashed=0;align=center;html=1;shape=mxgraph.mockup.containers.browserWindow;rSize=0;strokeColor2=#008cff;strokeColor3=#c4c4c4;mainText=,;recursiveResize=0;fillColor=#f5f5f5;strokeColor=#666666;fontColor=#333333;" parent="1" vertex="1">
                    <mxGeometry x="40" y="40" width="1120" height="800" as="geometry"/>
                </mxCell>
                <mxCell id="3" value="&lt;font style=&quot;font-size: 15px&quot;&gt;住所登録&lt;/font&gt;" style="strokeWidth=1;shadow=0;dashed=0;align=center;html=1;shape=mxgraph.mockup.containers.anchor;fontSize=17;fontColor=#666666;align=left;" parent="2" vertex="1">
                    <mxGeometry x="60" y="12" width="100" height="26" as="geometry"/>
                </mxCell>
                <mxCell id="4" value="https://www.●●●●" style="strokeWidth=1;shadow=0;dashed=0;align=center;html=1;shape=mxgraph.mockup.containers.anchor;rSize=0;fontSize=17;fontColor=#666666;align=left;" parent="2" vertex="1">
                    <mxGeometry x="130" y="60" width="250" height="26" as="geometry"/>
                </mxCell>
                <mxCell id="5" value="姓" style="align=left;fontSize=14;fillColor=#f5f5f5;fontColor=#333333;strokeColor=none;" parent="2" vertex="1">
                    <mxGeometry x="180" y="841" width="260" height="40" as="geometry"/>
                </mxCell>
                <mxCell id="6" value="山下" style="html=1;shadow=0;dashed=0;shape=mxgraph.bootstrap.rrect;rSize=5;align=left;spacing=15;fontSize=14;fillColor=#f5f5f5;strokeColor=#666666;fontColor=#333333;" parent="2" vertex="1">
                    <mxGeometry width="260" height="30" relative="1" as="geometry">
                        <mxPoint x="180" y="881" as="offset"/>
                    </mxGeometry>
                </mxCell>
                <mxCell id="41" value="洋史" style="html=1;shadow=0;dashed=0;shape=mxgraph.bootstrap.rrect;rSize=5;align=left;spacing=15;fontSize=14;fillColor=#f5f5f5;strokeColor=#666666;fontColor=#333333;" parent="2" vertex="1">
                    <mxGeometry width="260" height="30" relative="1" as="geometry">
                        <mxPoint x="460" y="881" as="offset"/>
                    </mxGeometry>
                </mxCell>
                <mxCell id="42" value="名" style="align=left;fontSize=14;fillColor=#f5f5f5;fontColor=#333333;strokeColor=none;" parent="2" vertex="1">
                    <mxGeometry x="460" y="840" width="260" height="40" as="geometry"/>
                </mxCell>
                <mxCell id="7" value="都道府県・市区町村・番地" style="align=left;fontSize=14;fillColor=#f5f5f5;fontColor=#333333;strokeColor=none;" parent="2" vertex="1">
                    <mxGeometry width="260" height="40" relative="1" as="geometry">
                        <mxPoint x="180" y="1120" as="offset"/>
                    </mxGeometry>
                </mxCell>
                <mxCell id="8" value="1" style="html=1;shadow=0;dashed=0;shape=mxgraph.bootstrap.rrect;rSize=5;align=left;spacing=15;fontSize=14;fillColor=#f5f5f5;strokeColor=#666666;fontColor=#333333;" parent="2" vertex="1">
                    <mxGeometry width="800" height="30" relative="1" as="geometry">
                        <mxPoint x="180" y="1160" as="offset"/>
                    </mxGeometry>
                </mxCell>
                <mxCell id="58" value="名（ふりがな）" style="align=left;fontSize=14;fillColor=#f5f5f5;fontColor=#333333;strokeColor=none;" parent="1" vertex="1">
                    <mxGeometry x="500" y="960" width="260" height="40" as="geometry"/>
                </mxCell>
                <mxCell id="59" value="姓（ふりがな）" style="align=left;fontSize=14;fillColor=#f5f5f5;fontColor=#333333;strokeColor=none;" parent="1" vertex="1">
                    <mxGeometry x="220" y="961" width="260" height="40" as="geometry"/>
                </mxCell>
                <mxCell id="62" value="ひろし" style="html=1;shadow=0;dashed=0;shape=mxgraph.bootstrap.rrect;rSize=5;align=left;spacing=15;fontSize=14;fillColor=#f5f5f5;strokeColor=#666666;fontColor=#333333;" parent="1" vertex="1">
                    <mxGeometry width="260" height="30" relative="1" as="geometry">
                        <mxPoint x="500" y="1001" as="offset"/>
                    </mxGeometry>
                </mxCell>
                <mxCell id="63" value="やました" style="html=1;shadow=0;dashed=0;shape=mxgraph.bootstrap.rrect;rSize=5;align=left;spacing=15;fontSize=14;fillColor=#f5f5f5;strokeColor=#666666;fontColor=#333333;" parent="1" vertex="1">
                    <mxGeometry width="260" height="30" relative="1" as="geometry">
                        <mxPoint x="220" y="1001" as="offset"/>
                    </mxGeometry>
                </mxCell>
                <mxCell id="64" value="郵便番号" style="align=left;fontSize=14;fillColor=#f5f5f5;fontColor=#333333;strokeColor=none;" vertex="1" parent="1">
                    <mxGeometry width="260" height="40" relative="1" as="geometry">
                        <mxPoint x="220" y="1080" as="offset"/>
                    </mxGeometry>
                </mxCell>
                <mxCell id="65" value="1" style="html=1;shadow=0;dashed=0;shape=mxgraph.bootstrap.rrect;rSize=5;align=left;spacing=15;fontSize=14;fillColor=#f5f5f5;strokeColor=#666666;fontColor=#333333;" vertex="1" parent="1">
                    <mxGeometry width="260" height="30" relative="1" as="geometry">
                        <mxPoint x="220" y="1120" as="offset"/>
                    </mxGeometry>
                </mxCell>
            </root>
        </mxGraphModel>
    </diagram>
</mxfile>